IKResults
version=1
nRows=14
nColumns=40
inDegrees=yes

Units are S.I. units (second, meters, Newtons, ...)
Angles are in degrees.

endheader
time	pelvis_tilt	pelvis_list	pelvis_rotation	pelvis_tx	pelvis_ty	pelvis_tz	hip_flexion_r	hip_adduction_r	hip_rotation_r	knee_angle_r	knee_angle_r_beta	ankle_angle_r	subtalar_angle_r	mtp_angle_r	hip_flexion_l	hip_adduction_l	hip_rotation_l	knee_angle_l	knee_angle_l_beta	ankle_angle_l	subtalar_angle_l	mtp_angle_l	lumbar_extension	lumbar_bending	lumbar_rotation	arm_flex_r	arm_add_r	arm_rot_r	elbow_flex_r	pro_sup_r	wrist_flex_r	wrist_dev_r	arm_flex_l	arm_add_l	arm_rot_l	elbow_flex_l	pro_sup_l	wrist_flex_l	wrist_dev_l
      0.00000000	     17.04040694	     -4.62102991	     -6.46863382	     -1.15284382	      0.94900742	      1.01001210	     -4.02571105	     -1.72471963	     -6.62510871	    -31.11513278	     -0.54306151	      7.88678030	    -11.37732088	      6.36061822	    -22.06957090	     -1.31965149	     18.84474422	    -11.37146772	     -0.19846955	     11.02990450	     -0.75965940	     -4.76373082	    -23.05337262	      1.62528085	     -0.89451624	     -0.85526580	    -10.46541283	      0.80642279	     26.51242417	     89.95437384	      0.00000000	      0.00000000	     10.41951175	     11.00410972	      3.00738721	     28.57908787	     89.95437384	      0.00000000	      0.00000000
      0.01000000	     17.10896360	     -4.89183917	     -6.50312125	     -1.14878895	      0.94898362	      1.01026328	     -3.52874028	     -1.38571614	     -6.94322209	    -29.84660996	     -0.52092161	      7.62894878	    -10.23383521	      6.32550895	    -22.50197988	     -1.13618311	     18.65989032	    -11.24967418	     -0.19634385	     11.27316377	     -0.50208652	     -4.76604356	    -23.20781146	      1.87431699	     -0.79010792	     -0.96549899	    -10.48291094	      0.62777452	     25.88381149	     89.95437384	      0.00000000	      0.00000000	     10.60292221	     10.98981811	      3.03815705	     29.07856834	     89.95437384	      0.00000000	      0.00000000
      0.02000000	     17.11659280	     -5.15498706	     -6.53127566	     -1.14458966	      0.94876934	      1.01059320	     -2.96610559	     -1.03726248	     -7.31491186	    -28.56930888	     -0.49862850	      7.08075541	     -9.00287062	      6.21369291	    -22.82049266	     -0.91615089	     18.50259173	    -11.30962912	     -0.19739027	     11.50920476	     -0.29120343	     -4.74404073	    -23.24999902	      2.12234778	     -0.72982748	     -1.09383527	    -10.50334542	      0.48099248	     25.31189285	     89.95437384	      0.00000000	      0.00000000	     10.70457001	     10.98911995	      3.05779895	     29.56237686	     89.95437384	      0.00000000	      0.00000000
      0.03000000	     17.17311569	     -5.39060592	     -6.47705226	     -1.14035071	      0.94852337	      1.01079618	     -2.49584763	     -0.78119270	     -7.99312857	    -27.27085192	     -0.47596616	      6.39088523	     -7.61037923	      6.01794797	    -23.20161050	     -0.70891586	     18.31266031	    -11.31672510	     -0.19751411	     11.69357624	     -0.05393532	     -4.74698547	    -23.35527740	      2.37116666	     -0.74740148	     -1.28237361	    -10.54066596	      0.28684311	     24.91951196	     89.95437384	      0.00000000	      0.00000000	     10.78688228	     10.96878460	      3.16436844	     30.08262209	     89.95437384	      0.00000000	      0.00000000
      0.04000000	     17.11889811	     -5.58088914	     -6.55123002	     -1.13620195	      0.94810277	      1.01114212	     -1.83605987	     -0.53373087	     -8.40577898	    -26.08744637	     -0.45531183	      5.28923999	     -6.07626819	      5.83147525	    -23.46307240	     -0.57883259	     18.23817164	    -11.32787214	     -0.19770867	     11.94466469	      0.07988189	     -4.73120882	    -23.34145299	      2.55115381	     -0.67850274	     -1.40681900	    -10.56392390	      0.11703951	     24.41679721	     89.95437384	      0.00000000	      0.00000000	     10.91212572	     10.91163590	      3.35107125	     30.45548364	     89.95437384	      0.00000000	      0.00000000
      0.05000000	     17.19127402	     -5.75086611	     -6.37647562	     -1.13174142	      0.94771508	      1.01131974	     -1.44248351	     -0.35441701	     -9.33480142	    -24.77981685	     -0.43248939	      4.26328025	     -4.38338346	      5.41967277	    -23.85823736	     -0.38177811	     17.99985487	    -11.34303219	     -0.19797326	     12.10279799	      0.23310615	     -4.76301972	    -23.42130576	      2.76086089	     -0.77804816	     -1.70119526	    -10.59338006	     -0.14328107	     24.17674422	     89.95437384	      0.00000000	      0.00000000	     10.99069332	     10.88068946	      3.45229335	     30.89493191	     89.95437384	      0.00000000	      0.00000000
      0.06000000	     17.15849079	     -5.85995064	     -6.31496552	     -1.12727276	      0.94702906	      1.01171831	     -0.80862267	     -0.21146812	    -10.02523834	    -23.73958218	     -0.41433387	      3.01742169	     -2.92540382	      4.91798683	    -24.14113318	     -0.26709232	     17.86015848	    -11.34914978	     -0.19808003	     12.36945150	      0.31121698	     -4.84555958	    -23.36907823	      2.88524701	     -0.81530917	     -1.95403330	    -10.59301702	     -0.41081513	     23.85958132	     89.95437384	      0.00000000	      0.00000000	     11.06270963	     10.85702340	      3.50871351	     31.26743094	     89.95437384	      0.00000000	      0.00000000
      0.07000000	     17.03399258	     -5.96811325	     -6.34898748	     -1.12300783	      0.94628848	      1.01213276	     -0.09137134	     -0.05537128	    -10.65855733	    -22.68871136	     -0.39599272	      1.57012372	     -1.57115500	      4.65351218	    -24.31386373	     -0.17072005	     17.90682248	    -11.37376856	     -0.19850971	     12.62292000	      0.31677254	     -4.86790592	    -23.26272119	      3.00058487	     -0.77473449	     -2.17237464	    -10.63365649	     -0.63753821	     23.54277242	     89.95437384	      0.00000000	      0.00000000	     11.14658964	     10.78258170	      3.60984213	     31.60033775	     89.95437384	      0.00000000	      0.00000000
      0.08000000	     17.02471679	     -6.15552065	     -6.19345025	     -1.11868151	      0.94573934	      1.01235177	      0.35317068	      0.13794573	    -11.84805891	    -21.47495496	     -0.37480867	      0.08824673	      0.09968241	      4.25880187	    -24.60016203	      0.06761657	     17.86253135	    -11.41961671	     -0.19930991	     12.84922887	      0.29198716	     -4.94014056	    -23.28818487	      3.24991844	     -0.86924910	     -2.39786435	    -10.64360840	     -1.01782503	     23.32837597	     89.95437384	      0.00000000	      0.00000000	     11.25545674	     10.68317651	      3.79081521	     31.90193551	     89.95437384	      0.00000000	      0.00000000
      0.09000000	     17.11737550	     -6.29423184	     -5.83341458	     -1.11392630	      0.94512356	      1.01258040	      0.76318753	      0.24792484	    -13.17684958	    -20.58277794	     -0.35923724	     -1.18406791	      1.90469487	      3.29947197	    -25.00792992	      0.35158654	     17.71254753	    -11.45424161	     -0.19991423	     13.06407096	      0.05428947	     -5.17360021	    -23.35722648	      3.48474046	     -1.13877570	     -2.70279033	    -10.61509256	     -1.45591766	     23.16989876	     89.95437384	      0.00000000	      0.00000000	     11.26116955	     10.68405280	      3.80164362	     32.33641498	     89.95437384	      0.00000000	      0.00000000
      0.10000000	     16.87564952	     -6.36212870	     -5.90596220	     -1.10970622	      0.94410421	      1.01310935	      1.57941838	      0.38209927	    -13.96696781	    -19.64889934	     -0.34293799	     -2.81851506	      3.04657972	      3.08369232	    -25.05098666	      0.39731897	     17.79565961	    -11.46192689	     -0.20004836	     13.38816642	      0.04128832	     -5.20796520	    -23.14248355	      3.56887633	     -1.10179950	     -2.89400974	    -10.65687898	     -1.65299599	     22.92966173	     89.95437384	      0.00000000	      0.00000000	     11.31993414	     10.59474042	      3.90858208	     32.64252926	     89.95437384	      0.00000000	      0.00000000
      0.11000000	     17.01004659	     -6.41378782	     -5.42164592	     -1.10479689	      0.94346665	      1.01300929	      1.90557780	      0.13587929	    -16.71623087	    -18.75803752	     -0.32738952	     -5.29523301	      5.68629260	     -6.96819147	    -25.46897942	      0.59154859	     17.40490365	    -11.49002850	     -0.20053883	     13.51635603	      0.41796023	     -7.01003116	    -23.23757911	      3.77484923	     -1.51707519	     -3.19694983	    -10.62932606	     -2.14478726	     22.83427129	     89.95437384	      0.00000000	      0.00000000	     11.29346208	     10.57162285	      3.88902115	     33.08621283	     89.95437384	      0.00000000	      0.00000000
      0.12000000	     16.92206972	     -6.63085641	     -5.26138604	     -1.10029617	      0.94263024	      1.01355141	      2.37598180	      0.48541267	    -17.66044567	    -17.73353199	     -0.30950852	     -6.81886825	      6.69262811	     -6.88581510	    -25.63803757	      0.90073478	     17.45577455	    -11.62478138	     -0.20289071	     13.82752999	      0.37975624	     -6.98230698	    -23.18633105	      4.04910867	     -1.59922823	     -3.40521703	    -10.64284658	     -2.46644968	     22.66679136	     89.95437384	      0.00000000	      0.00000000	     11.32173458	     10.47856691	      4.04181533	     33.44401376	     89.95437384	      0.00000000	      0.00000000
      0.13000000	     16.91898883	     -6.87230291	     -4.97844255	     -1.09570003	      0.94190018	      1.01409151	      2.69990542	      0.83826642	    -18.81530830	    -16.73541894	     -0.29208816	     -8.23643566	      8.14064208	     -7.00862270	    -25.90422386	      1.28487193	     17.43762922	    -11.74583837	     -0.20500355	     14.14177828	      0.26719258	     -7.01196333	    -23.20870830	      4.37028618	     -1.76339160	     -3.60095811	    -10.60137719	     -2.92931734	     22.49970168	     89.95437384	      0.00000000	      0.00000000	     11.34562651	     10.40120768	      4.14483739	     33.80281384	     89.95437384	      0.00000000	      0.00000000
